<?xml version="1.0" encoding="UTF-8"?>
<!DOCTYPE svg PUBLIC "-//W3C//DTD SVG 1.1//EN" "http://www.w3.org/Graphics/SVG/1.1/DTD/svg11.dtd">
<!-- Creator: CorelDRAW 2021 (64-Bit) -->
<svg xmlns="http://www.w3.org/2000/svg" xml:space="preserve" width="264.319mm" height="242.358mm" version="1.1" style="shape-rendering:geometricPrecision; text-rendering:geometricPrecision; image-rendering:optimizeQuality; fill-rule:evenodd; clip-rule:evenodd"
viewBox="0 0 26431.86 24235.82"
 xmlns:xlink="http://www.w3.org/1999/xlink"
 xmlns:xodm="http://www.corel.com/coreldraw/odm/2003">
 <defs>
  <style type="text/css">
   <![CDATA[
    .fil1 {fill:white}
    .fil0 {fill:url(#id0)}
    .fil2 {fill:url(#id1)}
   ]]>
  </style>
  <linearGradient id="id0" gradientUnits="userSpaceOnUse" x1="4954.96" y1="24553.06" x2="25451.09" y2="15463.49">
   <stop offset="0" style="stop-opacity:1; stop-color:#009F4E"/>
   <stop offset="0.568627" style="stop-opacity:1; stop-color:#0B8848"/>
   <stop offset="1" style="stop-opacity:1; stop-color:#167042"/>
  </linearGradient>
  <linearGradient id="id1" gradientUnits="userSpaceOnUse" x1="5999.41" y1="15571.03" x2="20536.67" y2="11558.82">
   <stop offset="0" style="stop-opacity:1; stop-color:#009F4E"/>
   <stop offset="0.521569" style="stop-opacity:1; stop-color:#088746"/>
   <stop offset="1" style="stop-opacity:1; stop-color:#106E3E"/>
  </linearGradient>
 </defs>
 <g id="Capa_x0020_1">
  <metadata id="CorelCorpID_0Corel-Layer"/>
  <path class="fil0" d="M11059.98 14820.74l-3642.53 3049.92 -5752.4 4750.23c420.34,-165.48 1902.35,-1081 2492.62,-1396.03 2016,-1075.95 4208.75,-2448.45 6275.13,-3572.42 407.27,-221.51 850.32,-520.45 1277.58,-702.14l1197.97 1306.2c378.65,386.92 822.17,967.57 1157.23,1333.48 241.8,-113.6 398.34,-281.7 580.46,-438.17 1062.86,-913.32 2673.76,-2348.29 3674.53,-3132.12 129.16,-101.16 148.69,-149.67 274.74,-253.58l1968.36 -1668.77c115.25,-94.7 162.94,-159.49 273.79,-251.69l1685.73 -1419.48c223.29,-212.92 333.82,-283.23 542.89,-509.16 310.66,183.84 458.18,616.19 754.03,857.39 210.92,-491.81 1619.36,-4160.82 1630.98,-4468.33l-4589.52 842.66c158.08,446.89 523.87,783.87 632.7,1196.92 -350.2,191.96 -6122.3,5066.14 -6503.75,5283.28l-2136.55 -2290.97c-226.5,190.22 -1527.96,1307.33 -1793.99,1482.78z"/>
  <path class="fil1" d="M21680.49 9513.64l480.21 878.95c-230.47,270.86 -5136.5,4148.12 -5577.65,4486.23 -365.53,280.16 -1611.69,1354.79 -1906.44,1466.04l-1842.72 -2280.07c-273.02,175.7 -498.6,378.43 -794.87,628.81l-4052.23 3354.08c-254.13,215.54 -528.45,408.7 -800.96,648.1l-794.65 657.06 2655.75 -1506.84c850.25,-505.14 1867.98,-1017.58 2729.52,-1537.98 279.53,163.39 1652.16,1814.12 2044.67,2226.07 214.62,225.28 137.86,217.91 334.54,337.16l7328.6 -6230.89c250.06,-227.55 333.49,-274.14 563.31,-494.35 152.2,-145.83 1007.79,-879.27 1162.31,-940.79 232.03,225.48 219.06,360.44 471.2,535.96l1022.99 -2757.14 -3023.58 529.6z"/>
 </g>
 <g id="Capa_x0020_1_0">
  <metadata id="CorelCorpID_1Corel-Layer"/>
  <path class="fil2" d="M10084.85 3094.05l-3197.75 137.65c85.94,1995.84 -62.84,1744.02 536.88,1713.94 186.81,-9.34 422.91,-21.81 551.37,4.08 353.41,71.14 464.04,267.56 481.94,684.71l323.48 7512.83c32.5,754.3 -597.66,720.49 -1434.18,756.51l69.7 1618.1c3.82,88.81 31.78,114.45 120.57,110.61l3082.17 -132.7 86.27 2003.44 2118.99 -91.26 -86.26 -2003.44 1348.45 -58.06 86.26 2003.44 2119 -91.25 -94.55 -2196.04c183.73,-51.24 408.11,-114.19 576.52,-174.14 477.25,-169.86 1350.85,-674.7 1653.55,-1073.31 390.49,-514.09 796.76,-1151.6 800.75,-1855.79 3.27,-570.94 3.46,-831.86 -186.72,-1327.86 -281.97,-735.39 -769.45,-1270.43 -1494.91,-1597.38 -249.74,-112.63 -857.08,-336.25 -1160.61,-348.36 108.2,-102.58 543.04,-273.63 827.56,-462 1861,-1231.82 1650.86,-3708.68 14.3,-4690.84 -422.94,-253.92 -1050.98,-539.65 -1549.67,-529.32l-94.57 -2196.07 -2118.98 91.28 87.88 2041.91 -1348.44 58.06 -87.89 -2041.9 -2119.01 91.21 87.9 2041.95zm2835.53 4895.69l-1271.41 54.76 -129.4 -3005.13c855.86,-36.84 2644.18,-196.91 3292.67,121.94 450.24,221.42 743.43,683.85 714.13,1294.24 -60.32,1254.65 -1256.07,1476.08 -2605.99,1534.19zm78.09 5400.49c-247.27,10.63 -392.44,-5.04 -582.44,-10.49 -467.61,-13.37 -531.42,137.66 -594.52,-1328.41l-92.91 -2157.54 2003.41 -86.24c2838.21,-122.22 2636.61,2434.59 1448.84,3179.5 -466.19,292.37 -1420.21,370.36 -2182.38,403.18z"/>
 </g>
</svg>
